<svg width="200" height="101" fill="none" xmlns="http://www.w3.org/2000/svg"><path d="M0 14.262C0 6.898 5.97.929 13.333.929A2.667 2.667 0 0116 3.595V50.93H0V14.262z" fill="#D0D0D0"/><path d="M176 50.929h16v36.666c0 7.364-5.97 13.334-13.333 13.334A2.667 2.667 0 01176 98.262V50.929zM0 50.929h16v47.333a2.667 2.667 0 01-2.667 2.667C5.97 100.929 0 94.959 0 87.595V50.93z" fill="#999"/><path d="M176 3.595A2.667 2.667 0 01178.667.93C186.03.929 192 6.899 192 14.262v36.667h-16V3.595z" fill="#D0D0D0"/><path d="M200 58.929a8 8 0 01-8 8v-16h8v8z" fill="#5F5E5E"/><path d="M200 42.929a8 8 0 00-8-8v16h8v-8z" fill="#7D7D7D"/><path opacity=".2" fill="#000" d="M16 4.929h160v92H16z"/><path opacity=".2" fill="#000" d="M16 50.929h160v46H16z"/><path fill="#fff" d="M144 40.929h4v20h-4z"/><path fill="#fff" d="M156 48.929v4h-20v-4zM56 48.929v4H36v-4z"/></svg>