<svg xmlns="http://www.w3.org/2000/svg" viewBox="0 0 414.6 414.6"><path fill="#FFF" d="M0 0v413.6h413.4V0H0zm341.8 137.2c-10.5 15.4-28.3 18.9-41.1 19.2-.9 3.1-3 5.3-7 6.5.3 21.6.1 46.9-.9 67.1-1 19.4-7.8 31.8-17.8 38.5 1.8 10.7 2.8 27.1-2.5 44.9.1.1.1.2.2.2l2 9.2s-9.9-1-13.7-6.6c-1.3.2-2.8.5-4.3.7.2 1.8.5 5.1-.1 8.5 0 0-10.9-1.8-13.5-7.4-1.9.1-3.9.1-5.9.1 0 2.1-.2 4.9-1.7 7.9-4.7-1.1-10-4.3-12.3-8.7-.4 0-.9-.1-1.3-.1 0 0-7.5-20-5.6-41.3-5.2.2-11.1.4-18.1.5 2.4 21.1-5.2 40.2-5.2 40.2-.3 0-.7.1-1 .1-1.7 5-7.5 8.8-12.5 10.1-1.8-3.5-2-6.8-1.9-8.9-1.9.1-3.8.1-5.6.2-1.7 6.4-13.6 8.7-13.6 8.7-.8-3.9-.4-7.7-.2-9.2-1.5-.1-2.8-.3-4.1-.4-3.4 6.1-13.8 7.5-13.8 7.5l1.7-9.3c.3-.4.6-.8.8-1.1-6-18.7-4.9-36-3.2-46.4-15-9.8-17.4-25.9-18.7-35.4-1.8-13-1.3-21.3-3.3-68.3-5.6-1.1-8.1-3.5-9.1-7.1-12.7-.9-30.5-5.1-40.3-20.9-16.7-26.5-6-55.2-6-55.2 14.4 32.1 36.8 38.6 50.4 39.3 1.8-3.7 4.4-6.1 7.7-7.2 9.6-28 37.3-27.5 72.5-27.5 0 0 23.3-3 53.9-.3 21.4 1.8 34.7 12.2 41.3 26.1 4.5.7 7.8 3.3 9.9 7.9 13.6-.1 36.3-5.6 52.1-37.2-.1 0 9.4 29.2-8.2 55.1z"/><circle opacity=".2" fill="#0C0E0F" cx="163.8" cy="165.3" r="38.2"/><circle fill="#FFF" cx="163.9" cy="158.8" r="38.2"/><circle fill="#343541" cx="163.9" cy="158.8" r="20.2"/><circle opacity=".2" fill="#0C0E0F" cx="247.8" cy="166.2" r="38.2"/><circle fill="#FFF" cx="247.9" cy="159.7" r="38.2"/><circle fill="#343541" cx="247.9" cy="159.7" r="20.2"/><path opacity=".3" fill="#0C0E0F" d="M174.3 227.5c22.1.7 24.7-17.3 32.6-.6 0 0 2.6-6.7 6.1-6.8 5.1-.2 11.3 11 24.1 7.1 12.8-3.9-22.9 6.3-32.3 7-9.4.6-30.9-5-30.9-5"/><path fill="#FFF" d="M180.1 229l3.5 20.2 14.1-14.9M161.4 223.4l3 20.3 14.5-14.5M251.7 221.7l-.8 20.5-16-12.8M234.8 229.5l-3.9 20.2-13.8-15.2M197.9 233.8l9.7 18.1 8.8-18.6"/><path fill="#282D37" d="M141.4 209.7s.5.3 1.4.8c.9.6 2.2 1.3 3.9 2.3 3.4 1.9 8.3 4.5 14.4 7.2 3 1.3 6.3 2.7 9.9 4 3.5 1.3 7.3 2.5 11.3 3.6 3.9 1.1 8.1 1.9 12.3 2.6 4.2.6 8.5 1.1 12.8 1 4.3.2 8.6-.3 12.8-.8 1-.2 2.1-.4 3.1-.6 1-.2 2.1-.3 3.1-.6 2-.6 4-.9 5.9-1.7 3.8-1.3 7.5-2.7 10.8-4.4 1.6-.9 3.3-1.7 4.8-2.6 1.5-.9 3-1.8 4.4-2.7 1.4-.9 2.6-1.9 3.9-2.7 1.2-.9 2.4-1.7 3.4-2.6 1-.9 2-1.7 2.9-2.4.5-.4.9-.7 1.3-1.1.4-.4.8-.7 1.1-1 2.9-2.6 4.6-4.1 4.6-4.1s-1.3 1.8-3.8 4.9c-1.2 1.6-2.9 3.3-4.7 5.3-.9 1-2 2-3.1 3.1-1.2 1-2.3 2.2-3.7 3.2-1.4 1-2.8 2.1-4.3 3.2s-3.2 2-4.8 3.1c-3.4 2-7.1 3.9-11.2 5.4-2 .8-4.1 1.3-6.3 2-2.1.6-4.4 1-6.6 1.5-4.5.7-9.1 1.2-13.7 1.1-4.6 0-9.2-.6-13.7-1.3-2.2-.4-4.4-.8-6.5-1.4-2.1-.5-4.2-1.1-6.3-1.8-2-.6-4-1.4-5.9-2.1-1.9-.8-3.8-1.5-5.5-2.4-3.6-1.6-6.8-3.3-9.8-5-5.9-3.4-10.5-6.7-13.5-9.1-3.1-2.3-4.7-3.9-4.7-3.9z"/><path fill="#343541" d="M141.8 258s-8.9 27 1.2 57.5c0 0 20.2 5.3 49.9 1.2 0 0 8.1-20.2 5-42.1M272 256.1s9.7 26.8.4 57.5c0 0-20.8 6.9-50.5 3.6 0 0-7.9-21.1-5.5-43.1"/><g fill="#343541"><path d="M154.4 316.2c.6-1.6-7.5-8.2-12.5-.8l-1.7 9.3c-.1.1 11.5-1.5 14.2-8.5zM172 316s-7.5-8-13.9 1c0 0-.9 4.8.1 9.9 0 0 13-2.5 13.8-9.5M191.9 316.6s-5.7-9.8-14.1-.7c0 0-1.3 5.3 1.6 11 5-1.3 10.8-5.2 12.5-10.3z"/></g><g fill="#343541"><path d="M260.1 314.7c-.6-1.5 7.3-8.5 12.5-1.1l2 9.2c0 .1-11.6-1.2-14.5-8.1zM242.5 315s7.3-8.2 13.9.6c0 0 1 4.7.1 9.9 0 0-13-2.1-14-9.1M222.6 316.2s5.4-10 14.1-1.1c0 0 1.4 5.3-1.3 11-5.1-1.2-11-4.9-12.8-9.9z"/></g><path fill="#343541" d="M124.7 112.5c-9.6-.1-14.6 7.8-15.7 24.1-1 16.3-6.1 27.9 14.6 28.4M286.1 111.3c9.6.3 14.3 8.4 14.6 24.7.3 16.4 4.9 28.2-15.7 27.7"/></svg>