<svg width="61" height="60" fill="none" xmlns="http://www.w3.org/2000/svg"><g clip-path="url(#clip0)"><rect x=".5" width="60" height="60" rx="10" fill="#304457"/><path d="M28.387 60L14.464 46.077 36 47V26l11.713-11.96L60.5 26.826V50c0 5.523-4.477 10-10 10H28.387z" fill="#1A3045"/><path fill-rule="evenodd" clip-rule="evenodd" d="M45.5 24.5l-10-1.5h-5c1.08 5.617 3.418 14.032-1.56 17.988-1.704 1.354-9.068 2.21-13.204 2.21-1.594 0-2.064 2.047-1.237 2.874.95 1.042 2.6 1.928 5 1.928h21.002c1.61 0 3.5-1 3.5-3 0-1.991-1.2-4.032-1.5-6-1.006-6.562 3-14.5 3-14.5z" fill="#257837"/><path d="M42.5 39c-1.005-6.562 3-14.5 3-14.5l-14.666-1.312-.236.312c.586.578 8.948.862 8.136 4.606-.642 2.962.401 2.51 1.266 6.894.435 2.205-2.057 2.774-1.5 5 .5 2 2 3 1 4.5-1.687 2.53-16.784 2.666-25 1.573.951 1.042 2.6 1.927 5 1.927h21c1.61 0 3.5-1 3.5-3 0-1.991-1.199-4.032-1.5-6z" fill="#0B5C1D"/><path d="M27.5 12c.019 1 12 3 20 2-6.8-1.6-20-4-20-2z" fill="#38A44F"/><path d="M28.43 12.567c.02 1 11.07 3.378 19.07 2.378-6.8-1.6-19.09-3.503-19.07-2.378z" fill="#0A5019"/><path d="M30.5 23.5C36.023 23.5 41 25 45 26c2.305.576 4-12.188 2.5-12-8 1-19.981-1-20-2 0 4 1.5 11.5 3 11.5z" fill="#38A44F"/><path d="M30.5 23.5C36.023 23.5 41 25 45 26c2.5.625 4-12.187 2.5-12-1.555.194-3.261.275-5 .273 0 5.227.5 8.727-12 9.227z" fill="#2A873E"/><path d="M31.895 31.05c-.181-1.759-.381-2.94-.381-2.94l5.486.393v1.085s-1.154 1.5-1.807 1.5c-.654 0-1.337-.037-3.298-.037z" fill="#0A5019"/><path d="M30.943 30c-.37 0-.777-3 0-3h4.25C35.846 27 37 28.5 37 28.5S35.846 30 35.193 30h-4.25z" fill="#38A44F"/><path d="M31.625 36.598c.152-.445.435-2.769.435-2.769l5.16.915v.936s-1.462 1.365-2.12 1.299c-.66-.067-1.499-.181-3.475-.381z" fill="#0A5019"/><path d="M30.817 35.584c-.372-.038-.48-3.064.303-2.985l4.282.434c.658.067 1.817 1.686 1.817 1.686s-1.461 1.365-2.12 1.299l-4.282-.434z" fill="#38A44F"/><path d="M28.951 40.977c1.337-1.102 1.825-2.312 1.825-2.312l4.15 2.62v1.106s-1.947.678-2.495.396c-.548-.282-1.837-.964-3.48-1.81z" fill="#0A5019"/><path d="M28.87 39.858c-.31-.159.947-2.871 1.598-2.536.821.422 2.788 1.42 3.335 1.701.548.282 1.123 2.272 1.123 2.272s-1.948.677-2.495.396l-3.56-1.833z" fill="#38A44F"/></g><defs><clipPath id="clip0"><path fill="#fff" transform="translate(.5)" d="M0 0h60v60H0z"/></clipPath></defs></svg>