<svg width="61" height="60" fill="none" xmlns="http://www.w3.org/2000/svg"><g clip-path="url(#clip0)"><rect x=".5" width="60" height="60" rx="10" fill="#304457"/><path d="M26.393 60L7.962 41.568H27.5V20h20.839L60.5 32.161V50c0 5.523-4.477 10-10 10H26.393z" fill="#1A3045"/><path d="M54.47 39.834c-.332 5-3.924 4.071-9.97 3.402-9.035-1-21 2.5-31 1-5.064-.76-8.51-5.144-7.953-8.48.584-3.5 5.584-2.323 12.988-.323 9.17 2.477 15.407-1.065 24.596-2.5 6.404-1 11.679 1.792 11.34 6.901z" fill="#378BA6"/><path d="M54.535 39.197c0 5.121-3.99 3.972-10.035 3.303-9.035-1-21 2.5-31 1-5.064-.76-8.465-4.803-7.965-7.803.584-3.5 5.596-3 13-1 9.17 2.477 15.407-1.065 24.596-2.5 6.404-1 11.404 1.88 11.404 7z" fill="#3EBAE1"/><path d="M54.304 41c-8.304-3.5-23.835-.251-27.335-2.054l8.835-3.446c9.5-2 11.363-2.156 17.863.344 1.09 1.579.98 4.048.637 5.156z" fill="#378BA6"/><path d="M21.535 23c-1.2 2.4-1.5 10.333-1.5 14 0 0 1 2 9 2s9.5-2 9.5-2c-1.333-3.167-4-8.9-4-10.5 0-2 2-5.5 4-6s12 5 12 2.5-12-11-15-11-12.5 8-14 11z" fill="#3EBAE1"/><path d="M29.422 22.116c2.494 3.194 1.216 7.649 2.216 13.649 0 0-2.703 2.535-8.703 2.535 11 2 15.6-1.3 15.6-1.3-1.333-3.167-4-8.9-4-10.5 0-2 2-5.5 4-6s12 5 12 2.5c-3.035-.5-10.779-3.677-10.779-5.062-3 0-8.834 4.178-10.334 4.178z" fill="#378BA6"/><path d="M29.035 39c8 0 9.5-2 9.5-2-.468-1.113-1.102-2.544-1.726-4C35 35.5 24.5 36 20.124 33a98.735 98.735 0 00-.089 4s1 2 9 2z" fill="#FFC658"/><path d="M20.035 37s1 2 9 2c1.245 0 2.333-.048 3.283-.13 5.148-.444 6.217-1.87 6.217-1.87-.468-1.113-1.102-2.544-1.726-4-.716.989-2.79 1.665-5.309 1.935 1 3.565-7 4.565-11.465 2.065z" fill="#D89515"/></g><defs><clipPath id="clip0"><path fill="#fff" transform="translate(.5)" d="M0 0h60v60H0z"/></clipPath></defs></svg>