<svg width="61" height="60" fill="none" xmlns="http://www.w3.org/2000/svg"><g clip-path="url(#clip0)"><rect x=".5" width="60" height="60" rx="10" fill="#304457"/><path d="M24.5 60l-12-12L48.608 12.11 60.5 24v26c0 5.523-4.477 10-10 10h-26z" fill="#1A3045"/><path d="M40.855 14.192l7.778-2.12-2.121 7.777-9.9 9.9h-1.414v1.414l-6.364 6.364-2.828-2.828-2.829-2.829 13.435-13.435h1.414v-1.414l2.829-2.829z" fill="#8D9DA9"/><path d="M40.855 14.192l7.778-2.12-2.121 7.777-9.9 9.9h-1.414v1.414l-6.364 6.364-.707-.707 7.071-7.071 10.607-10.607 1.414-5.657-5.657 1.415-3.535 3.535-14.143 14.142-.707-.707 13.435-13.435h1.414v-1.414l2.829-2.829z" fill="#CEDFEC"/><path d="M22.47 35.406l2.83 2.828-6.365 6.364-2.828-2.828 6.364-6.364z" fill="#997238"/><path d="M23.885 36.82l1.414 1.414-6.364 6.364-1.414-1.414 6.364-6.364z" fill="#8B6730"/><path d="M35.905 23.385a1 1 0 011.414 1.414L26.713 35.406l-1.414-1.415 10.606-10.606z" fill="#5B7080"/><circle cx="15.399" cy="45.305" r="4" transform="rotate(45 15.4 45.305)" fill="#D89515"/><path fill-rule="evenodd" clip-rule="evenodd" d="M11.953 47.337a4.002 4.002 0 005.479-5.478 4.002 4.002 0 00-5.479 5.478zM24.592 33.284c-2.057-2.057-3.921-5.335-2.121-9.192-4.243 4.242-3.086 8.228 0 11.314l2.828 2.828c3.086 3.085 7.071 4.243 11.314 0-3.857 1.8-7.136-.064-9.192-2.121l-2.829-2.829z" fill="#FFC658"/><path fill-rule="evenodd" clip-rule="evenodd" d="M25.3 38.234c3.085 3.086 7.07 4.243 11.313 0-2.166 1.011-4.15.866-5.838.18-.526.527-2.647 1.234-5.476-.18z" fill="#D89515"/></g><defs><clipPath id="clip0"><path fill="#fff" transform="translate(.5)" d="M0 0h60v60H0z"/></clipPath></defs></svg>