<svg width="32" height="52" fill="none" xmlns="http://www.w3.org/2000/svg"><path d="M21.105.002H23c8.04 0 9.925 5.009 8.515 13-1.423-2.364-3.51-2.364-4.032-1.182-.603 1.365-.252 2.566.203 4.118.439 1.496.972 3.318.84 5.927-.2 3.96-.96 6.24-2.087 9.206-.522-2.706-1.976-3.275-3.132-2.706-1.567.772-1.828 3.235-2.165 6.407-.194 1.828-.414 3.891-.922 6.002C18.654 47.274 16 52 16 52s-2.655-4.727-4.22-11.227c-.49-2.03-.727-4.066-.94-5.892-.375-3.224-.675-5.792-2.148-6.517-1.155-.569-2.61 0-3.131 2.706-1.128-2.966-1.887-5.247-2.088-9.206-.144-2.865.403-4.807.835-6.337.413-1.465.72-2.552.21-3.708-.523-1.182-2.61-1.182-4.034 1.182C-.926 5.01.96.002 9 .002h12.105z" fill="#FFA217"/><path d="M20 13c0 7-3.999 11-3.999 11s-4-4-4-11c0-4-3-3-3.977-2-1.769-4.3-.373-11 4.977-11h6c5.35 0 6.747 6.698 4.977 11-.977-1-3.977-2-3.977 2z" fill="#FFD15B"/></svg>