<svg width="200" height="200" fill="none" xmlns="http://www.w3.org/2000/svg"><path d="M0 0h200v200H0V0z" fill="#0B1538"/><path opacity=".15" d="M40 25l.99 3.01L44 29l-3.01.99L40 33l-.99-3.01L36 29l3.01-.99L40 25z" fill="#fff"/><path opacity=".1" d="M160 38l1.98 6.02L168 46l-6.02 1.98L160 54l-1.98-6.02L152 46l6.02-1.98L160 38z" fill="#FFEDAD"/><path opacity=".2" d="M94 131l1.485 4.515L100 137l-4.515 1.485L94 143l-1.485-4.515L88 137l4.515-1.485L94 131z" fill="#fff"/><path opacity=".4" d="M137 79l.99 3.01L141 83l-3.01.99L137 87l-.99-3.01L133 83l3.01-.99L137 79z" fill="#fff"/><path opacity=".15" d="M154 159l.99 3.01 3.01.99-3.01.99L154 167l-.99-3.01L150 163l3.01-.99.99-3.01z" fill="#FFEDAD"/><path opacity=".1" d="M62 87l.99 3.01L66 91l-3.01.99L62 95l-.99-3.01L58 91l3.01-.99L62 87z" fill="#FFEDAD"/><path opacity=".1" d="M109 44l.99 3.01L113 48l-3.01.99L109 52l-.99-3.01L105 48l3.01-.99L109 44z" fill="#CBF3FF"/><path opacity=".15" d="M13 167l.99 3.01L17 171l-3.01.99L13 175l-.99-3.01L9 171l3.01-.99L13 167z" fill="#CBF3FF"/></svg>