<svg viewBox="0 0 167 13.9" xmlns="http://www.w3.org/2000/svg"><g fill="#069FB5"><path d="M-.13 7.7h167.34v6.28H-.13z"/><path d="M167.104 2c-1.503 0-2.806-.8-3.507-2-.7 1.2-2.003 2-3.506 2-1.5 0-2.803-.8-3.504-2-.702 1.2-2.005 2-3.507 2-1.504 0-2.806-.8-3.508-2-.7 1.2-2.002 2-3.505 2-1.503 0-2.805-.8-3.506-2-.7 1.2-2.004 2-3.506 2-1.503 0-2.806-.8-3.507-2-.702 1.2-2.004 2-3.506 2-1.502 0-2.804-.8-3.506-2-.7 1.2-2.004 2-3.507 2-1.502 0-2.804-.8-3.506-2-.7 1.2-2.002 2-3.505 2-1.503 0-2.805-.8-3.506-2-.703 1.2-2.005 2-3.508 2-1.5 0-2.804-.8-3.505-2-.702 1.2-2.004 2-3.507 2-1.502 0-2.805-.8-3.506-2-.7 1.2-2.004 2-3.507 2-1.503 0-2.804-.8-3.506-2-.7 1.2-2.003 2-3.506 2-1.503 0-2.806-.8-3.507-2-.7 1.2-2.003 2-3.506 2-1.502 0-2.804-.8-3.505-2-.702 1.2-2.005 2-3.507 2-1.503 0-2.805-.8-3.507-2-.7 1.2-2.002 2-3.505 2-.9 0-2.204-.8-2.905-2-.702 1.2-2.005 2-3.508 2-1.503 0-2.804-.8-3.506-2-.7 1.2-2.003 2-3.506 2-1.503 0-2.706-.8-3.507-2-.7 1.2-2.003 2-3.506 2-1.503 0-2.805-.8-3.506-2-.7 1.2-2.003 2-3.505 2-1.503 0-2.805-.8-3.507-2-.7 1.2-2.003 2-3.506 2-1.502 0-2.804-.8-3.505-2-.7 1.2-2.004 2-3.506 2-1.503 0-2.806-.8-3.507-2-.702 1.2-2.004 2-3.506 2-1.503 0-2.805-.8-3.507-2-.702 1.2-2.005 2-3.508 2-1.502 0-2.804-.8-3.506-2-.7 1.2-2.003 2-3.506 2-1.203 0-2.504-.8-3.206-2-.7 1.2-1.903 1.9-3.306 2v6.7h167.306l-.1-6.7z"/></g><path fill="#F285B6" d="M44.9 7.6c2.5 0 4.5-2 4.5-4.5h-9c.1 2.5 2.1 4.5 4.5 4.5zm88.5 0c2.5 0 4.5-2 4.5-4.5h-9c0 2.5 2 4.5 4.5 4.5z"/><path fill="#fff" d="M67.7 9.3c2.4 0 4.4-2 4.4-4.4h-8.8c0 2.4 2 4.4 4.4 4.4z"/><path fill="#BAD532" d="M51.8 7.2H38.1c-.4 0-.7.3-.7.7 0 .4.3.7.7.7h13.7c.4 0 .8-.3.8-.7-.1-.3-.4-.7-.8-.7zm22.9 1.5H61.1c-.4 0-.7.3-.7.8s.3.8.7.8h13.7c.4 0 .7-.3.7-.8s-.4-.8-.8-.8zm65.5-1.5h-13.7c-.4 0-.7.3-.7.7 0 .4.3.7.7.7h13.7c.4 0 .8-.3.8-.7 0-.3-.4-.7-.8-.7z"/></svg>