<svg width="61" height="60" fill="none" xmlns="http://www.w3.org/2000/svg"><g clip-path="url(#clip0)"><rect x=".5" width="60" height="60" rx="10" fill="#304457"/><path d="M32 60L15 43l8-12.5h25l4.246-4.246 8.254 8.254V50c0 5.523-4.477 10-10 10H32z" fill="#1A3045"/><path fill-rule="evenodd" clip-rule="evenodd" d="M52.966 27.133c0 .92-.442 1.735-1.126 2.245-.2.15-.34.373-.34.622s.14.473.34.622a2.8 2.8 0 11-3.762 4.11C47.366 33.936 46.53 33 45.461 33H42.5a2 2 0 01-2-2v-2a2 2 0 012-2h2.96c1.07 0 1.906-.936 2.618-1.732a2.8 2.8 0 014.888 1.866z" fill="#fff"/><path fill-rule="evenodd" clip-rule="evenodd" d="M52.943 32.495c-1.132 1.457-3.584 1.629-4.905-.028-.554-.696-1.284-1.334-2.174-1.334H37.1c0 1.031.835 1.867 1.866 1.867H45.5c.791 0 2.165 1.352 2.739 1.897a2.8 2.8 0 004.704-2.402z" fill="#D5D5D5"/><path d="M43.633 30c0 11.2-20.582 14-26.133 14V16c5.551 0 26.133 2.8 26.133 14z" fill="#A56831"/><path d="M17.5 19v-3c4.203 0 17.02 1.605 23 7.244C34 19.5 26.587 19 17.5 19z" fill="#B87545"/><path d="M43.633 30c0 11.2-20.582 14-26.133 14v-7c5.551 0 23.333-1.4 26.133-7z" fill="#8B5828"/><ellipse cx="17.966" cy="30" rx="7.933" ry="14" fill="#D48A54"/><ellipse cx="17.967" cy="30" rx="7" ry="13.067" fill="#FFCBA5"/><ellipse cx="17.966" cy="30" rx="6.067" ry="12.133" fill="#D95A33"/><ellipse cx="18" cy="30" rx="2.5" ry="4" fill="#FFCBA5"/><ellipse cx="18" cy="30" rx="1.5" ry="3" fill="#fff"/></g><defs><clipPath id="clip0"><path fill="#fff" transform="translate(.5)" d="M0 0h60v60H0z"/></clipPath></defs></svg>