<svg width="61" height="60" fill="none" xmlns="http://www.w3.org/2000/svg"><g clip-path="url(#clip0)"><rect x=".5" width="60" height="60" rx="10" fill="#304457"/><path d="M40.5 60l-17-17 6-22-1-8.5 3 3 10-1 19 19V50c0 5.523-4.477 10-10 10h-10z" fill="#1A3045"/><path d="M43.042 33.141c-2.09 10.101-8.36 11.617-10.452 10.101-1.045 1.01-3.135 1.01-4.181 0-2.09 1.516-8.361 0-10.451-10.1C15.867 23.04 21.091 19 30.5 19c9.407 0 14.633 4.04 12.542 14.141z" fill="#DF5F37"/><path d="M34 24.5C19 23 23.33 19 30.5 19c-7.61 0-12.483 2.644-12.96 9-.555 7.362 9.685 4.88 14.96 1.5 3.324-2.129 3.47-4.803 1.5-5z" fill="#F07751"/><ellipse cx="30" cy="21.25" rx="2.5" ry="1.147" fill="#B94825"/><path d="M26.5 14.422c1.6 1.2 2.667 5.166 3 7h1c0-4.8-1.333-8-2-9-.333.166-1.2.8-2 2z" fill="#8B6730"/><path d="M30.5 21.422c0-4.8-1.333-8-2-9 1 3.361.434 5.886 1 9h1z" fill="#6D4621"/><path d="M29.844 16.788c.547-.642 1.579-1.312 3.304-1.312" stroke="#0B5C1D" stroke-linecap="round"/><path d="M32.427 15.504c1.125 1.115 4.5 2.788 9-1.115-3.375-2.23-8.438-2.23-9 1.115z" fill="#38A44F"/><path fill-rule="evenodd" clip-rule="evenodd" d="M36.427 15.334c-1.713.098-2.485.215-3.996.18.613.534 1.497 1.339 2.867 1.401 2.343.107 4.447-1.058 6.129-2.53-.84.16-3.096.84-5 .95z" fill="#257837"/><path d="M43.043 33.361c-2.088 9.897-8.354 11.381-10.443 9.897-1.045.99-3.132.99-4.178 0-.689.49-1.833.656-3.132.304-7.111-2.33 6.267-3.768 6.267-3.768 12.009-1.485 9.055-18.953 10.947-15.501 1.186 2.163 1.344 5.256.54 9.068z" fill="#B94825"/></g><defs><clipPath id="clip0"><path fill="#fff" transform="translate(.5)" d="M0 0h60v60H0z"/></clipPath></defs></svg>