<svg width="61" height="60" fill="none" xmlns="http://www.w3.org/2000/svg"><g clip-path="url(#clip0)"><rect x=".5" width="60" height="60" rx="10" fill="#304457"/><path d="M25 60L12 47l20.5-20 4-11H43l6.934-7.164L60.5 19.402V50c0 5.523-4.477 10-10 10H25z" fill="#1A3045"/><path d="M37.212 19.742v5.455l5.455-1.818 5.455-5.455 1.818-9.091-9.091 3.636-3.637 7.274z" fill="#45A6FF"/><path d="M37.212 19.742v5.455l4.546-4.545 4.546-6.364 3.636-5.455-9.091 3.636-3.637 7.274z" fill="#389FFE"/><path d="M37.212 19.743v5.454l4.546-4.545-4.546-.91z" fill="#0966BB"/><path d="M49.94 8.833l-9.091 3.636 5.455 1.819 3.636-5.455z" fill="#8FC9FF"/><path d="M49.94 8.833l-9.091 3.636 1.773.602 7.318-4.238z" fill="#fff"/><path d="M41.758 20.651l-4.546 4.546 5.455-1.818 5.455-5.455 1.818-9.091-3.636 5.455-4.546 6.363z" fill="#0A5CA7"/><path d="M41.758 20.652l-4.546 4.545 5.455-1.818-.91-2.727z" fill="#074885"/><path d="M49.94 8.833l-3.636 5.455 1.818 3.636 1.818-9.091z" fill="#2589E6"/><path opacity=".4" d="M46.183 19.869l-1.868-2.926-4.95-1.498-.936 1.865s3.409-.822 4.91 1.132c1.307.843 1.87 2.4 1.87 2.4l.974-.973zM42.496 21.26c-.044-.858-.566-.93-.566-.93l-4.725-.764.009 1.892s1.978.253 4.055-.309c-.044.153-.026 1.096.969.97.16-.396.268-.671.258-.858zM38.966 24.61l1.444-.465c.07-.858-.247-1.378-.876-1.168-.732.244-.57 1.612-.568 1.633z" fill="#000"/><path d="M38.982 16.195c-.773.241-1.547.776-2.232 1.764a6.195 6.195 0 00-.398.663c.622-.23 1.435-.457 2.222-.482 1.42-.046 3.147.53 4.136 1.296.442.343.711.751.385 1.205-.231.323-.639.52-1.295.197-1.042-.512-2.051-.925-3.423-.746-1.496.195-2.81 1.085-3.146 2.224-.197 1.026-.38 2.15-.658 3.203.798.253 1.686.393 2.497.285 1.024-.136 1.964-.663 2.526-2.068.205-.513.616-.59.887-.482.411.164.565.665.346 1.11-.836 1.692-1.865 2.651-3.68 3.127-1.228.322-2.229.244-3.25-.088-1.02 2.103-2.128 3.7-4.335 5.543-1.408 1.177-2.573 1.726-3.889 3.182-1.274 1.41-1.986 2.62-2.704 4.047-.74 1.47-4.43 7.37-9.214 7.37-1.414 0-2.474-.354-2.474-3.182 0-1.118.353-3.182 2.12-2.828 1.769.353 4.982-1.16 6.367-3.673.955-1.734 1.394-2.88 3.077-4.562.425-.426.847-.799 1.264-1.13 1.718-1.363 1.713-4.383 1.396-5.46.286-.643 1.163-.606 1.357-.348.52.695.722 3.684.722 3.684s3.18-1.837 4.545-4.41c.717-1.35.86-2.269 1.145-3.743.324-1.67.76-3.527 1.83-5.073.907-1.31 2.032-2.145 3.281-2.534 1.242-.387 2.526-.308 3.723.074 2.367.755 4.508 2.727 5.673 5.058a1 1 0 11-1.789.894c-.956-1.913-2.705-3.476-4.492-4.047-.88-.28-1.74-.313-2.52-.07z" fill="#9D6838"/><path d="M11.283 44.363c0-1.118.353-3.182 2.121-2.828 1.768.353 4.981-1.16 6.366-3.673.956-1.734 1.394-2.88 3.077-4.562a14.79 14.79 0 011.265-1.13c1.718-1.363 1.704-4.461 1.404-5.442.639 1.072 1.37 4.544-1.147 6.535-2.55 2.017-2.891 2.367-4.599 4.599-1.638 3.124-4.867 5.371-6.565 5.08-1.358-.234-1.848.85-1.922 1.421zM33.277 21.893c.323-1.67.76-3.527 1.83-5.073.906-1.31 2.032-2.145 3.28-2.534-2.011 1.276-2.946 2.446-3.663 5.128-.504 1.884-.155 7.133-6.162 9.994 4.079-2.962 4.429-6.04 4.715-7.515z" fill="#C5955D"/><path d="M38.983 16.196c-.773.24-1.548.775-2.232 1.763a6.17 6.17 0 00-.398.663c-.087-.538.107-1.69 1.323-2.744 1.52-1.318 3.886-1.157 6.065.416 1.902 1.372 2.592 2.122 3.595 4.465a1 1 0 01-1.341-.447c-.957-1.913-2.705-3.476-4.492-4.047-.88-.28-1.74-.313-2.52-.07z" fill="#714A26"/><path d="M43.096 20.642c-.232.323-.639.519-1.296.196-1.041-.512-2.05-.924-3.422-.746-1.497.195-2.81 1.085-3.146 2.225.12-.91.44-1.817.656-2.244.62-.099 1.28-1.025 3.368-.86 1.164.093 1.801.317 2.935.9.364.187.582.359.905.529zM27.586 30.046s-.168-2.895-.727-3.686c.17 2.756-.104 3.385-.49 4.703 1.055-.345 1.065-.7 1.217-1.017zM37.33 26.652c1.352-.433 2.002-.998 2.822-2.163.287-.409.322-.786.331-1.236.412.165.566.665.346 1.11-.835 1.692-1.864 2.652-3.68 3.128-1.227.322-2.228.244-3.249-.088a2.115 2.115 0 01-.01.021c-1.019 2.092-2.126 3.685-4.325 5.522-1.409 1.176-2.574 1.726-3.89 3.182-1.274 1.41-1.985 2.619-2.704 4.047-.74 1.47-4.43 7.37-9.213 7.37-1.414 0-2.475-.354-2.475-3.182 1.129 2.549 3.79 1.867 4.7.085.999-1.954 4.452-2.209 6.067-5.195.94-1.742 1.817-3.394 2.702-4.474 1.973-2.409 2.532-2.034 5.047-3.66 1.957-1.265 3.581-2.736 4.09-3.695l.01-.021h.001c.195-.375.302-.801.369-1.101.218.524 2.355.576 3.06.35z" fill="#714A26"/><mask id="a" maskUnits="userSpaceOnUse" x="8" y="11" width="41" height="41"><path d="M38.982 16.195c-.773.241-1.547.776-2.232 1.764a6.195 6.195 0 00-.398.663c.622-.23 1.435-.457 2.222-.482 1.42-.046 3.147.53 4.136 1.296.442.343.711.751.385 1.205-.231.323-.639.52-1.295.197-1.042-.512-2.051-.925-3.423-.746-1.496.195-2.81 1.085-3.146 2.224-.197 1.026-.38 2.15-.658 3.203.798.253 1.686.393 2.497.285 1.024-.136 1.964-.663 2.526-2.068.205-.513.616-.59.887-.482.411.164.565.665.346 1.11-.836 1.692-1.865 2.651-3.68 3.127-1.228.322-2.229.244-3.25-.088-1.02 2.103-2.128 3.7-4.335 5.543-1.408 1.177-2.573 1.726-3.889 3.182-1.274 1.41-1.986 2.62-2.704 4.047-.74 1.47-4.43 7.37-9.214 7.37-1.414 0-2.474-.354-2.474-3.182 0-1.118.353-3.182 2.12-2.828 1.769.353 4.982-1.16 6.367-3.673.955-1.734 1.394-2.88 3.077-4.562.425-.426.847-.799 1.264-1.13 1.718-1.363 1.713-4.383 1.396-5.46.286-.643 1.163-.606 1.357-.348.52.695.722 3.684.722 3.684s3.18-1.837 4.545-4.41c.717-1.35.86-2.269 1.145-3.743.324-1.67.76-3.527 1.83-5.073.907-1.31 2.032-2.145 3.281-2.534 1.242-.387 2.526-.308 3.723.074 2.367.755 4.508 2.727 5.673 5.058a1 1 0 11-1.789.894c-.956-1.913-2.705-3.476-4.492-4.047-.88-.28-1.74-.313-2.52-.07z" fill="#8B5C30"/></mask><g mask="url(#a)"><path fill="#C4C4C4" stroke="#979292" d="M21.154 33.4l2.121-2.122 5.657 5.657-2.121 2.121z"/><path fill="#C4C4C4" stroke="#979292" d="M19.033 35.52l2.121-2.121 5.657 5.657-2.121 2.121zM16.911 37.642l2.122-2.121 5.656 5.656-2.12 2.122z"/><path fill="#C4C4C4" stroke="#979292" d="M14.79 39.763l2.121-2.121 5.657 5.657-2.121 2.12z"/><path opacity=".4" d="M22.05 39.253c.941-1.742 1.817-3.394 2.703-4.474.519-.635.94-1.076 1.325-1.411l1.252 1.255a11.66 11.66 0 00-1.654 1.505c-1.274 1.41-1.986 2.619-2.704 4.047-.413.82-1.745 3.02-3.674 4.805l-1.928-1.914c1.464-.95 3.534-1.695 4.68-3.813z" fill="#000"/></g></g><defs><clipPath id="clip0"><path fill="#fff" transform="translate(.5)" d="M0 0h60v60H0z"/></clipPath></defs></svg>