<svg xmlns="http://www.w3.org/2000/svg" xmlns:xlink="http://www.w3.org/1999/xlink" viewBox="0 0 414.6 414.6"><path fill="#FFF" d="M0 0v414.6h414.6V0H0zm298.1 314.9c-14.6 28-50.6-3.4-50.6-3.4s10.2 21.1-9.7 22.5c-19.9 1.3-15.1-18.7-15.1-18.7s3.1-19.1-15.4-20.9c-13.1-1.3-19.6 10.4-16.9 19.2 2.6 8.8-1.8 20.5-13.3 20.4-15.9-.1-15.1-13.1-9.5-23.8-9.1 15.1-45.2 16.7-47.2-3.2-1.2-11.7 20.9-4.3 31.8-15.9 10.4-11.1 14.1-31.9 6.6-52.4-5.3-14.4-17.3-32.3-18.1-50.9-1.2-27.3 9.5-54.8 35.2-67.5l-7.1-15.8.8-.4c-2.8.9-5.7 1.4-8.8 1.4-15.7 0-28.5-12.8-28.5-28.5s12.8-28.5 28.5-28.5 28.5 12.8 28.5 28.5c0 10.5-5.6 19.6-14 24.6l.3-.1 7.2 16c8.3-3 17.9-4.6 28.9-4.4 8.9.1 16.8 1.5 23.8 3.9l6.2-15.9C233 96.1 227 86.7 227 76c0-15.7 12.8-28.5 28.5-28.5S284 60.3 284 76s-12.8 28.5-28.5 28.5c-2.4 0-4.7-.3-6.9-.8l-6.2 16-.3-.1c24.2 11.5 35.1 36.4 36 60.2.7 19.1-9.5 36.9-13.2 47.6-13.8 39.2-7.5 57.4 3.3 66.6 15.5 13.2 35.1 11 29.9 20.9z"/><g opacity=".3"><defs><path id="a" opacity=".3" d="M298.1 314.9c5.2-9.9-14.4-7.7-29.8-20.8-10.8-9.3-17.1-27.4-3.3-66.6 3.8-10.7 13.9-28.5 13.2-47.6-1.2-32.1-20.6-66.3-66.5-66.8-51.8-.6-72.6 37.2-70.9 74.8.8 18.5 12.8 36.5 18.1 50.9 7.5 20.4 3.8 41.3-6.6 52.4-10.9 11.6-33 4.2-31.8 15.9 2 19.9 38.1 18.3 47.2 3.2-5.6 10.7-6.3 23.7 9.5 23.8 11.5.1 15.9-11.6 13.3-20.4-2.6-8.8 3.9-20.5 16.9-19.2 18.4 1.9 15.4 20.9 15.4 20.9s-4.9 20 15.1 18.7c19.9-1.3 9.7-22.5 9.7-22.5s35.9 31.3 50.5 3.3z"/></defs><use xlink:href="#a" overflow="visible" fill="#0C0E0F"/></g><circle opacity=".3" fill="#0C0E0F" cx="160.9" cy="77" r="28.5"/><circle opacity=".3" fill="#0C0E0F" cx="255.5" cy="76" r="28.5"/><circle fill="#FFF" cx="160.8" cy="77.1" r="20.3"/><circle fill="#343541" cx="160.8" cy="77.1" r="10.8"/><circle fill="#FFF" cx="256" cy="76.1" r="20.3"/><circle fill="#343541" cx="256" cy="76.1" r="10.8"/><path opacity=".3" fill="#0C0E0F" d="M194 260.4c-2.1-5.8-5-11.5-9-16.2-7.7-8.9-21.7 5-12.9 12.9 1.4 1.3 2.4 2.6 3.3 4-.1 1.9-.6 3.8-.5 5.6.1 6.8 5.5 12.3 12.6 10.2 7.3-2 8.7-10.1 6.5-16.5zM213.5 126.9c-3-.3-6 .1-8.9.8-.7-.2-1.4-.4-2.2-.5-4.1-.8-8.7 1.3-12.4.1-8.5-2.6-11 12.1-1.7 12.2 4.3.1 7.2-2.5 11.2-3.1 3.3-.4 6.9.9 10.1 1.1 3.5.2 9 .1 10.4-4 1.7-4.4-2.8-6.2-6.5-6.6zM260.9 290.9c-2.1-4-4.2-7.8-6.5-11.7-2.6-4.6-2.4-9.6-2.7-14.7-.4-7.4-10.9-7.3-11.4 0-.5 7.1-2.1 14.8.8 21.6.6 1.4 1.3 2.7 2.1 4 .8 2 1.7 4 2.6 5.9 1.4 3.3 2.5 6.7 5.7 8.6 3.6 2.1 8.6 1.1 10.8-2.5 2.3-3.8.4-7.7-1.4-11.2z"/><defs><path id="b" d="M252.7 160.5c-3.5 7.8-22.6 25.1-43.4 25.1-20.9 0-39.9-17.3-43.4-25.1-3.5-7.8-10.5 6.1-2.3 27.7 5.6 14.8 19.9 30.2 45.7 30.2s40.1-15.4 45.7-30.2c8.2-21.6 1.2-35.5-2.3-27.7z"/></defs><use xlink:href="#b" overflow="visible" opacity=".5" fill="#0C0E0F"/><clipPath id="c"><use xlink:href="#b" overflow="visible" opacity=".5"/></clipPath><path clip-path="url(#c)" fill="#FFF" d="M172 158.3l-8.6 18.8 18.7-5.8-4.7 17.5 17.5-10.7 3.1 23.4 11.9-19.1 11 14.6v-19.9l20.5 11.7-4.8-20.8 14.1 9.2-4.3-18.9"/><path opacity=".3" clip-path="url(#c)" fill="#0C0E0F" d="M178.5 213s2.3-18.6 28.8-8.5c0 0 18.4-13.1 37.1 6.4 0 0-28.2 20.2-44.9 20.2s-22-17.1-22-17.1"/><path opacity=".3" d="M168.928 104.486l6.838-3.08 7.186 15.957-6.84 3.08zM241.843 100.63l6.993 2.71-6.326 16.317-6.993-2.71z"/></svg>