<svg width="61" height="60" fill="none" xmlns="http://www.w3.org/2000/svg"><g clip-path="url(#clip0)"><rect x=".5" width="60" height="60" rx="10" fill="#304457"/><path d="M32.897 60L20.493 47.597l19.494-34.54L60.5 33.57V50c0 5.523-4.478 10-10 10H32.897z" fill="#1A3045"/><path d="M30.486 14.917c2.433 0 3.366-1.886 3.849-2.585-2.48.839-5.192.844-7.67 0 .464.564 1.277 2.585 3.821 2.585z" fill="#684512"/><path fill-rule="evenodd" clip-rule="evenodd" d="M30.5 13.79c-2.063 0-3.235-1.1-3.806-1.45-.297-.183-.653-.302-.995-.24l-4.249.778a1.002 1.002 0 00-.8.785c-1.083 5.311-1.614 7.824-4.851 11.102a.988.988 0 00-.293.718c.082 2.804.966 5.377 1.902 8.061 1.45 4.154 3.678 6.994 2.907 13.282-.409 3.34 20.79 3.422 20.37 0-.77-6.288 1.458-9.129 2.907-13.282.937-2.684 1.82-5.257 1.902-8.06a.987.987 0 00-.293-.719c-3.236-3.278-3.768-5.79-4.851-11.102a1.002 1.002 0 00-.8-.785l-4.248-.777c-.343-.063-.699.056-.995.238-.571.351-1.744 1.45-3.807 1.45z" fill="#8B6730"/><path fill-rule="evenodd" clip-rule="evenodd" d="M20.38 46.24c-.019.192-.04.387-.065.586-.409 3.34 20.789 3.422 20.37 0a22.577 22.577 0 01-.064-.576c-1.25 2.85-18.986 2.785-20.241-.01z" fill="#674512"/><path d="M30.5 13.788c-2.063 0-3.235-1.098-3.806-1.449-.297-.182-.653-.3-.995-.238l-4.249.777a1.002 1.002 0 00-.8.785c-1.083 5.311-1.614 7.824-4.851 11.102a.988.988 0 00-.293.718c.082 2.804.966 5.377 1.902 8.061-1.309-6.832.408-7.13 2.622-9.99 2.01-2.595 2.017-7.303 2.897-8.566.88-1.262 4.354-.274 6.855-.321 2.802-.053 3.932-1.58 4.524-2.328-.57.351-1.743 1.449-3.806 1.449z" fill="#997238"/><path d="M37.582 48.746s-2.354-7.832.918-17.246c1.043-3-5-.5-6-3.5 1.5.5 6.331-.209 8-1.5.646-.5 1-2 1-4 0-3.067-3.192-7.728-2.422-9.703.64.082 1.086.172 1.257.787 1.047 5.109 1.655 7.948 4.86 11.18a.995.995 0 01.299.725c-.085 2.802-.944 5.386-1.898 8.07-1.478 4.152-3.628 6.997-2.919 13.264.165 1.318-2.39 1.758-3.095 1.923zM29.5 27.5c.8-1.2 1.167-5.667 1-7.5-.5 2-1.5 4.5-2.5 6s-4.5 1.5-7.5 2c3.5 1 8 1 9-.5z" fill="#684512"/><path d="M31 31.174c-.5-.5-1 0-1 2.5s-2.5.326-3 .826c-1.235 1.235 2.5.593 2.5 2.174 0 2.326-3-.45-3 1.5 0 .826 3.5-.257 3.5 2 0 2.326-3-.255-3 1.326 0 1 1.921.6 2.5 1.174.61.606 1 2.326 1.5 2 .707-.46 1.713-7 1-8.674-.34-.799 2.288-.848 2-2-.25-1-2 1.732-2.5-.5-.338-1.507-.348-2.174-.5-2.326z" fill="#684512"/></g><defs><clipPath id="clip0"><path fill="#fff" transform="translate(.5)" d="M0 0h60v60H0z"/></clipPath></defs></svg>