<svg width="61" height="60" fill="none" xmlns="http://www.w3.org/2000/svg"><g clip-path="url(#clip0)"><rect x=".5" width="60" height="60" rx="10" fill="#304457"/><path d="M23.03 60l-6.463-6.462L18.5 50.5v-21l22-22 20 20V50c0 5.523-4.477 10-10 10H23.03z" fill="#1A3045"/><path d="M44.202 52.736c-1.556 1.007-2.469 1.054-4.183.974-.315-.216-.71-.788-.65-1.662-.818-.936-1.21-2.209-1.057-3.755-.662-.846-1.07-2.067-.817-3.166-.662-.71-.662-1.842-.662-2.46.902.065 2.492-.128 3.994-.404 1.21-.223 2.363-.5 3.054-.743.123.412.207.953.262 1.586.12 1.367.109 3.16.083 4.997-.022 1.593-.056 3.22-.024 4.633zM21.255 53.835c-.653.57-4.051.363-4.748-.334-.323-.795-.308-1.618.03-2.297-.47-1.113-.66-2.48.027-3.702-.31-.818-.6-1.775.106-2.774-.46-1.317-.133-2.06.372-2.58 1.037.362 3.1.63 4.856.658.832.013 1.596-.028 2.149-.139.046.535-.1 1.505-.35 2.663-.296 1.376-.738 3.017-1.173 4.51-.517 1.777-1.026 3.342-1.27 3.995z" fill="#C4C4C4"/><path d="M44.201 52.736c-1.556 1.007-2.468 1.053-4.182.974.308-1.257 4.716-4.881-.334-1.87-.734-2.14 5.924-6.51-.708-3.807-.255-1.896 6.612-5.594-1.306-3.053 0-.932 4.102-2.017-.724-2.306a4.788 4.788 0 01-.115-.007l.115.007c.919.041 2.44-.146 3.88-.411 1.21-.223 2.362-.501 3.053-.743.263.353.472.742.263 1.586.306.766.428 1.838.1 2.859.292.832.487 2.1-.032 3.098.385 1.146.47 2.304-.01 3.673zM21.254 53.835c-.653.57-4.05.363-4.747-.334.325-1.359 7.053-3.8.151-2.371 1.315-2.455 7.508-4.499.384-3.742.856-1.383 6.654-2.81-.21-2.672.205-.81 4.429-1.2.505-2.475a5.35 5.35 0 01-.295-.093l.294.093c1.1.314 2.959.54 4.562.565.832.013 1.595-.028 2.148-.139.272.932.196 1.785-.35 2.662.147.66 0 1.684-.535 2.215.132 1.082-.228 1.784-.637 2.295 0 1.666-.626 3.283-1.27 3.996z" fill="#979292"/><path d="M15.887 41.52c-3.338-2.518 2.69-8.546 3.983-31.684V7.645v-.026c0-1.77 20.753-1.843 20.753 0v2.217c1.508 21.187 5.45 28.074 5.017 30.327-.198 1.03-1.473 1.256-1.76 1.357-.69.242-1.844.52-3.054.743-1.502.276-3.092.469-3.994.404-.404-.029-.724-.087-.916-.178-3.723-1.78 0-7.228-4.983-21.438-.103-.295-.858-.26-1.008 0-4.258 16.062.324 19.112-4.72 21.267a5.729 5.729 0 01-1.159.35c-.553.11-1.316.151-2.148.138-1.757-.027-3.82-.296-4.856-.657-.347-.122-.533-.16-1.155-.63z" fill="#B9A17D"/><path d="M16.318 32.742c1.241-4.726 2.935-11.87 3.552-22.906 0 2.695 1.14 3.452.804 9.716-.3 5.587-1.776 8.003-4.356 13.19z" fill="#CCB490"/><path d="M29.925 21.05c-4.258 16.063.323 19.113-4.72 21.268a5.729 5.729 0 01-1.159.35c-.553.11-1.316.15-2.148.138-1.757-.027-3.82-.296-4.856-.658-.347-.12-.533-.16-1.155-.628.406.055.79.098 1.155.13 2.755.385-.202-3.04.958-3.478 1.26-.475.847 3.487 2.108 3.503 2.424.03 1.92-4.515 3.056-3.834.927.557-.765 3.227.379 2.743 4.734-2.005-.13-20.186 6.567-20.955 1.869-.215 2.259 4.485 2.711 6.494 1.158 5.139 1.697 13.042 3.095 14.275.27.238.262.077.597.186.938-.186-.597-1.907 0-2.522.597-.614 1.475 2.73 2.63 2.336 1.154-.395.398-3.937 1.49-3.937 1.093 0-.112 4.263 1.065 3.166.248-.334.614-1.205.67-1.565.51-3.308-1.305-20.702-4.917-23.67-1.334-1.096-2.53-2.322-7.341-2.744L40.633 9.84c.575 11.086 5.358 27.707 5.007 30.322-.14 1.039-1.473 1.256-1.76 1.357-.69.242-1.844.52-3.054.743-1.502.276-3.092.468-3.994.404-.404-.029-.724-.087-.916-.178-3.723-1.78 0-7.228-4.983-21.438-.103-.295-.858-.26-1.008 0z" fill="#9F8256"/><path d="M19.87 7.62c-.07 2.58 20.753 2.58 20.753 0 0-1.844-20.753-1.77-20.753 0z" fill="#997238"/><path d="M20.282 8.329c-.067 2.58 19.929 2.58 19.929 0 0-1.844-19.929-1.77-19.929 0z" fill="#5C4521"/><path d="M25.667 11.565c-3.133-.256-5.797-.905-5.797-1.729V7.645v-.026.026c.07 2.555 20.753 2.546 20.753-.026v2.217c0 .742-2.013 1.37-4.789 1.65-3.045.31-6.994.338-10.167.08z" fill="#8B6730"/></g><defs><clipPath id="clip0"><path fill="#fff" transform="translate(.5)" d="M0 0h60v60H0z"/></clipPath></defs></svg>