<svg width="96" height="97" fill="none" xmlns="http://www.w3.org/2000/svg"><circle cx="48" cy="48.929" r="48" fill="#FFCC49"/><path d="M48 .929a48 48 0 110 96v-96z" fill="#ECA419"/><path fill-rule="evenodd" clip-rule="evenodd" d="M60.999 48.893a12.992 12.992 0 00-6.236-11.068l11.829-19.728c10.32 6.237 17.257 17.511 17.403 30.416L61 48.893zM41.234 37.825l-11.829-19.73C19.082 24.335 12.145 35.61 12 48.518l22.999.38a12.993 12.993 0 016.235-11.072zM54.24 60.336l11.172 20.11a35.838 35.838 0 01-17.413 4.483 35.839 35.839 0 01-17.412-4.483l11.172-20.11a12.94 12.94 0 006.24 1.593c2.262 0 4.389-.577 6.241-1.593zM48 56.93a8 8 0 100-16 8 8 0 000 16z" fill="#333"/><path fill-rule="evenodd" clip-rule="evenodd" d="M48 56.929v-16a8 8 0 010 16zm0 28v-23c2.261 0 4.388-.577 6.24-1.593l11.172 20.11A35.838 35.838 0 0148 84.928zm6.764-47.104a12.993 12.993 0 016.235 11.068l22.997-.38c-.146-12.905-7.082-24.179-17.404-30.416L54.764 37.825z" fill="#000"/></svg>