<svg width="61" height="60" fill="none" xmlns="http://www.w3.org/2000/svg"><g clip-path="url(#clip0)"><rect x=".5" width="60" height="60" rx="10" fill="#304457"/><path d="M23.339 60L12.347 49.008 14.5 49l2-1.5-2-5-.5-10L26.5 19l11-7 9 2.5h4v-3.664l10 10V50c0 5.523-4.477 10-10 10H23.339z" fill="#1A3045"/><path d="M19.531 25.102s.354-1.06 3.182-3.889c2.829-2.828 3.89-3.182 3.89-3.182l1.414 1.414s-.354 1.06-3.182 3.89c-2.829 2.828-3.89 3.181-3.89 3.181l-1.414-1.414z" fill="#6D4621"/><path d="M20.592 26.163l3.535-3.536 3.536-3.535.353.353s-.353 1.061-3.182 3.89c-2.828 2.828-3.889 3.181-3.889 3.181l-.353-.353z" fill="#3F2B0D"/><path d="M19.885 25.456l3.535-3.536 3.536-3.536-.354-.353s-1.06.354-3.889 3.182c-2.828 2.828-3.182 3.889-3.182 3.889l.354.354z" fill="#8B6730"/><path d="M22.006 17.677C29.784 9.9 38.914 9.254 47.507 13.48c2.665 1.31 2.581-1.661 2.076-2.167-.505-.505.172-1.242.707-.707 2.475 2.475.707 6.364-3.535 4.95-10.607-3.535-15.557 2.829-17.678 6.364-1.414-2.828-4.9-5.328-7.071-4.243z" fill="#8B6730"/><path d="M24.748 17.764c-.98-.401-1.948-.483-2.742-.087 5.853-5.852 12.472-7.666 19.05-6.405-3.493.041-10.383.567-16.308 6.492z" fill="#997238"/><path d="M46.361 14.482l.04.014c2.122.707 2.717.606 4.156.63-.786.713-2.092 1-3.802.43-10.607-3.535-15.556 2.829-17.678 6.364-.581-1.163-1.513-2.27-2.56-3.096 2.914-.793 5.389-3.975 9.278-5.035 4.667-1.273 6.098-.796 10.566.693z" fill="#6D4621"/><path d="M19.178 20.506c-7.779 7.778-8.424 16.908-4.197 25.501 1.31 2.665-1.662 2.581-2.167 2.076-.505-.505-1.243.172-.707.707 2.475 2.475 6.364.707 4.95-3.535-3.536-10.607 2.828-15.557 6.363-17.678-2.828-1.414-5.328-4.9-4.242-7.071z" fill="#8B6730"/><path d="M19.265 23.247c-.402-.979-.484-1.948-.087-2.741-5.853 5.853-7.667 12.471-6.405 19.05.041-3.494.567-10.383 6.492-16.309z" fill="#997238"/><path d="M15.982 44.861l.014.04c.707 2.121.606 2.717.63 4.156.713-.787 1-2.093.43-3.803-3.535-10.606 2.829-15.556 6.364-17.677-1.163-.582-2.27-1.514-3.096-2.56-.793 2.913-3.975 5.388-5.035 9.277-1.273 4.667-.796 6.098.693 10.567z" fill="#6D4621"/><path fill-rule="evenodd" clip-rule="evenodd" d="M23.419 27.578c-.52.312-1.1.685-1.702 1.128-1.834-1.127-5.016-5.017-3.907-6.736.428-.492.883-.98 1.366-1.463.331-.331.402.022.54.712.157.79.402 2.023 1.227 3.178.823 1.151 1.688 1.757 2.25 2.151.647.454.896.628.226 1.03zm5.66-5.66c.31-.519.684-1.1 1.126-1.7-1.126-1.835-5.016-5.017-6.735-3.908-.493.428-.98.884-1.463 1.366-.331.331.022.402.712.54.79.157 2.022.402 3.177 1.227 1.152.823 1.758 1.688 2.152 2.25.454.648.628.896 1.03.226z" fill="#8D9DA9"/><path fill-rule="evenodd" clip-rule="evenodd" d="M18.068 24.543c-.488-.989-.67-1.932-.257-2.573.428-.492.883-.98 1.366-1.463.331-.331.401.022.54.713.137.69-.543 2.113-1.65 3.323zm7.972-7.977c-.988-.487-1.929-.669-2.57-.256-.492.428-.98.884-1.462 1.366-.331.332.021.402.712.54.69.137 2.106-.55 3.32-1.65z" fill="#CEDFEC"/><path fill-rule="evenodd" clip-rule="evenodd" d="M23.42 27.578c-.52.312-1.1.685-1.702 1.128-.632-.388-1.423-1.104-2.144-1.945.587-.9 1.01-2.822 1.37-2.364.823 1.151 1.687 1.757 2.25 2.151.647.454.896.628.225 1.03zm5.659-5.66c.312-.519.684-1.1 1.127-1.7-.387-.63-1.1-1.42-1.939-2.14-1.154.775-2.919.915-2.37 1.365 1.152.823 1.758 1.688 2.152 2.25.453.648.628.896 1.03.226z" fill="#5B7080"/><path d="M14.935 48.083l1.414 1.414 17.324-17.324L50.997 14.85l-1.414-1.414" stroke="#5C4521" stroke-linecap="round" stroke-linejoin="round"/><path fill="#8B6730" d="M26.248 50.205l21.92-21.92.708.707-21.92 21.92z"/><path d="M50.29 28.991h-1.415l-.707-.707V26.87l.707-.707 3.89-1.768-1.769 3.89-.707.706z" fill="#CEDFEC"/><path d="M50.29 28.991h-1.415l-.707-.707V26.87h1.414l.707.707v1.414z" fill="#8D9DA9"/><path d="M28.37 52.326l-.708-2.121 4.95-4.95.707 2.121-4.95 4.95z" fill="#C4C4C4"/><path d="M29.783 50.911l-.707-2.12 1.415-1.415.707 2.121-1.415 1.414zM32.612 48.083l-.707-2.121 1.415-1.414.707 2.12-1.415 1.415z" fill="#2A873E"/><path d="M24.834 48.79l2.121.708 4.95-4.95-2.121-.707-4.95 4.95z" fill="#EBEBEB"/><path d="M26.248 47.376l2.121.707 1.414-1.414-2.12-.707-1.415 1.414zM29.077 44.548l2.121.707 1.414-1.414-2.12-.708-1.415 1.415z" fill="#38A44F"/></g><defs><clipPath id="clip0"><path fill="#fff" transform="translate(.5)" d="M0 0h60v60H0z"/></clipPath></defs></svg>