<svg width="100" height="100" fill="none" xmlns="http://www.w3.org/2000/svg"><circle cx="50" cy="50" r="50" fill="#F9F7D8"/><path fill-rule="evenodd" clip-rule="evenodd" d="M7.844 23.103a50.275 50.275 0 0112.742-13.54c2.15 1.012 3.312 3.347 2.809 6.326-.76 4.49-5.015 8.747-9.506 9.506-2.73.46-4.92-.477-6.045-2.292zm3.935 23.675c-4.296 4.296-4.296 11.261 0 15.557 4.296 4.296 11.26 4.296 15.556 0 4.296-4.296 4.296-11.26 0-15.556-4.296-4.296-11.26-4.296-15.556 0zm47.5 13.5a8.88 8.88 0 1012.557 12.558 8.88 8.88 0 00-12.557-12.557zM49.999 100c5.861 0 11.487-1.008 16.712-2.86-.469-1.618-1.818-3.171-4.046-4.418-5.645-3.16-14.798-3.16-20.443 0-2.87 1.606-4.281 3.72-4.233 5.826A50.112 50.112 0 0050 100zm33.28-59.164a6.05 6.05 0 118.557-8.557 6.05 6.05 0 01-8.557 8.557zM45.222 16.22c-5.645 5.646-5.645 14.798 0 20.443 5.645 5.645 14.798 5.645 20.443 0 5.645-5.645 5.645-14.797 0-20.443-5.645-5.645-14.798-5.645-20.443 0z" fill="#D8DAAF"/><path opacity=".2" fill-rule="evenodd" clip-rule="evenodd" d="M69.134 96.194a50 50 0 0016.221-10.838c-38.97-.197-70.513-31.74-70.71-70.711a49.999 49.999 0 0054.49 81.55z" fill="#000"/></svg>