<svg width="61" height="60" fill="none" xmlns="http://www.w3.org/2000/svg"><g clip-path="url(#clip0)"><rect x=".5" width="60" height="60" rx="10" fill="#304457"/><path d="M35.71 60L20.507 44.795 23.5 43.5 24 39l-7-4-.5-9 2-3h7l15.615-5.498L60.5 36.887V50c0 5.523-4.477 10-10 10H35.71z" fill="#1A3045"/><path fill-rule="evenodd" clip-rule="evenodd" d="M15.5 27a5 5 0 015-5h4v2h-4a3 3 0 00-3 3v5.679a3 3 0 001.512 2.604l4.984 2.849-.992 1.736-4.985-2.848a5 5 0 01-2.519-4.341V27z" fill="#D5D5D5"/><path d="M20.5 23h4v1h-4a3 3 0 00-3 3c0-1.5.8-4 3-4z" fill="#AAA"/><path d="M24.425 18.919a1 1 0 01.997-.919h14.156a1 1 0 01.997.919L42.5 42.5l-10 .5-10-.5 1.925-23.581z" fill="#D5D5D5"/><path fill-rule="evenodd" clip-rule="evenodd" d="M37.58 18a1 1 0 01.997.917L40.5 42.5h2l-1.923-23.583A1 1 0 0039.58 18h-2z" fill="#AAA"/><path d="M26.426 18.92a1 1 0 01.997-.92h10.154a1 1 0 01.997.92L40.5 43h-16l1.926-24.08z" fill="#fff"/><path d="M39 24l.5 6 1 12.5-8 .5-8-.5 1-12.5.5-6c4.5-4 8.5 3 13 0z" fill="#C88C33"/><g opacity=".2" stroke="#fff"><circle cx="33.5" cy="39" r=".5"/><circle cx="37.5" cy="34" r=".5"/><circle cx="27.5" cy="37" r=".5"/><circle cx="31" cy="32.5" r="1"/><circle cx="34.5" cy="28" r="1.5"/></g><path opacity=".1" d="M26.425 18.919a1 1 0 01.997-.919h10.156a1 1 0 01.997.919L40.5 42.5l-8 .5-8-.5 1.925-23.581z" fill="#000"/><path opacity=".2" d="M34.5 18h4l2 24.5-5 .5-1-25z" fill="#000"/><path opacity=".2" d="M28.5 18h-2l-2 24.5h3l1-24.5z" fill="#fff"/><path d="M21.244 42.384a.776.776 0 01.716-.342c7.012.637 14.068.637 21.08 0a.776.776 0 01.716.342l.812 1.217a.984.984 0 01-.744 1.528c-7.538.58-15.11.58-22.648 0a.984.984 0 01-.744-1.528l.812-1.217z" fill="#D5D5D5"/><path d="M35.5 42.481c2.516-.065 5.03-.211 7.54-.44a.776.776 0 01.716.343l.812 1.217a.984.984 0 01-.744 1.528c-2.439.188-4.88.314-7.324.38 0 0-1-3.009-1-3.028z" fill="#AAA"/><path d="M21.244 42.384a.776.776 0 01.716-.342c1.844.167 5.54.37 5.54.37l-1 3.03s-3.551-.177-5.324-.313a.984.984 0 01-.744-1.528l.812-1.217z" fill="#E6E6E6"/><circle cx="28" cy="18.5" r="1.5" fill="#fff"/><circle cx="31" cy="18.5" r="2.5" fill="#fff"/><circle cx="32" cy="16.5" r="2.5" fill="#fff"/><circle cx="29.5" cy="17" r="2" fill="#fff"/><circle cx="35" cy="17.5" r="2.5" fill="#fff"/><circle cx="38" cy="18.5" r="1.5" fill="#fff"/><circle cx="26.5" cy="18" r="2" fill="#fff"/><circle cx="40" cy="18.5" r="1.5" fill="#fff"/><path d="M30.5 19v8" stroke="#fff" stroke-width="2" stroke-linecap="round"/></g><defs><clipPath id="clip0"><path fill="#fff" transform="translate(.5)" d="M0 0h60v60H0z"/></clipPath></defs></svg>