<svg width="61" height="60" fill="none" xmlns="http://www.w3.org/2000/svg"><g clip-path="url(#clip0)"><rect x=".5" width="60" height="60" rx="10" fill="#304457"/><path d="M32.207 60L16.103 43.896l28.293-28.293L60.5 31.707V50c0 5.523-4.477 10-10 10H32.207z" fill="#1A3045"/><circle cx="30.5" cy="30" r="20" fill="#8D9DA9"/><path d="M50.5 30a20 20 0 10-40 0c1-11 9.227-19 20-19s19 8 20 19z" fill="#CEDFEC"/><ellipse cx="30.5" cy="30.5" rx="15" ry="15.5" fill="#CEDFEC"/><circle cx="30.5" cy="30" r="15" fill="#8B6730"/><path fill-rule="evenodd" clip-rule="evenodd" d="M33.474 15.296c-.547-.11-1.098-.19-1.652-.238l13.62 13.62a15.067 15.067 0 00-.238-1.652l-11.73-11.73zm11.184 19.67L25.534 15.842c-.342.12-.681.253-1.016.398L44.26 35.982c.145-.334.278-.674.398-1.016zm-3.204 5.281L20.253 19.046c-.108.1-.215.204-.32.309l-.078.078c-.105.105-.208.212-.31.32l21.202 21.202a15.261 15.261 0 00.707-.708zm-4.972 3.513L16.74 24.02c-.145.334-.278.673-.398 1.016l19.123 19.123c.343-.12.682-.252 1.017-.398zm-7.303 1.182l-13.621-13.62c.049.553.128 1.105.238 1.652l11.73 11.73c.547.11 1.099.19 1.653.238z" fill="#674512"/><path d="M45.5 30a15 15 0 00-30 0c1-8 6.987-14 15-14s14 6 15 14z" fill="#674512"/><circle cx="30.5" cy="30" r="5" fill="#8D9DA9"/><circle cx="30.5" cy="30" r="4" fill="#5B7080"/><circle cx="29" cy="28.5" r="1.5" fill="#CEDFEC"/><path fill-rule="evenodd" clip-rule="evenodd" d="M30.5 14a1 1 0 100-2 1 1 0 000 2zm0 35a1 1 0 100-2 1 1 0 000 2zM48 31.5a1 1 0 110-2 1 1 0 010 2zm-36-1a1 1 0 102 0 1 1 0 00-2 0zm28.116-14.655a1 1 0 11-1.732-1 1 1 0 011.732 1zM21.25 46.522a1 1 0 101-1.733 1 1 0 00-1 1.733zm23.906-6.406a1 1 0 111-1.732 1 1 0 01-1 1.732zM14.479 21.25a1 1 0 101.732 1 1 1 0 00-1.732-1zm8.137-6.406a1 1 0 11-1.732 1 1 1 0 011.732-1zM39.75 46.522a1 1 0 10-1-1.732 1 1 0 001 1.732zm6.406-23.906a1 1 0 11-1-1.732 1 1 0 011 1.732zM14.479 39.75a1 1 0 101.732-1 1 1 0 00-1.732 1z" fill="#5B7080"/></g><defs><clipPath id="clip0"><path fill="#fff" transform="translate(.5)" d="M0 0h60v60H0z"/></clipPath></defs></svg>