<svg width="112" height="144" fill="none" xmlns="http://www.w3.org/2000/svg"><g clip-path="url(#clip0)"><path fill="#fff" d="M112 0v144H0V0z"/><path fill="#0E3248" d="M0 0h112v144H0z"/><path opacity=".1" fill-rule="evenodd" clip-rule="evenodd" d="M38.124 23.962a10.109 10.109 0 00-4.852-8.612L42.475 0c8.03 4.854 13.428 13.626 13.541 23.666l-17.892.296zM22.746 15.35L13.542 0C5.51 4.854.112 13.627 0 23.669l17.895.295a10.109 10.109 0 014.851-8.613zm10.118 17.515l8.692 15.645A27.883 27.883 0 0128.008 52a27.883 27.883 0 01-13.547-3.489l8.692-15.646a10.07 10.07 0 004.856 1.24c1.76 0 3.414-.45 4.855-1.24zm-4.862-2.652a6.224 6.224 0 100-12.45 6.224 6.224 0 000 12.45zM94.124 95.962a10.109 10.109 0 00-4.852-8.612L98.475 72c8.03 4.854 13.427 13.626 13.541 23.666l-17.892.296zM78.746 87.35L69.542 72C61.51 76.853 56.112 85.626 56 95.669l17.895.295a10.109 10.109 0 014.851-8.613zm10.118 17.515l8.692 15.645A27.883 27.883 0 0184.008 124a27.893 27.893 0 01-13.547-3.488l8.692-15.647c1.441.79 3.096 1.24 4.856 1.24 1.76 0 3.414-.449 4.855-1.239zm-4.855-2.652a6.225 6.225 0 100-12.45 6.225 6.225 0 000 12.45z" fill="#000"/></g><defs><clipPath id="clip0"><path fill="#fff" transform="rotate(90 56 56)" d="M0 0h144v112H0z"/></clipPath></defs></svg>