<svg xmlns="http://www.w3.org/2000/svg" xmlns:xlink="http://www.w3.org/1999/xlink" viewBox="0 0 401.4 413.1"><path opacity=".3" fill="#0C0E0F" d="M271.5 224.3l-72.8 33.4-72.8-33.4s-8.6 26-3.3 43.9l3.4-3.5s7 24.6 22 33.9v-6s10.3 15.3 51 15.3c41 0 51-15.3 51-15.3v6c15-9.3 21.7-33.9 21.7-33.9l3.1 3.5c5.4-17.9-3.3-43.9-3.3-43.9z"/><path fill="#32333F" d="M146.3 278.6s-10.1 6.3-13.3 16.3h6.7s-8.7 6-6.7 16c0 0 18.5 17.1 53.3 3.6 0 0 4-4.2 0-11.8l6.5 3s5.3-10.1 0-15.4M251.1 278.6s10.1 6.3 13.3 16.3h-6.7s8.7 6 6.7 16c0 0-18.5 17.1-53.3 3.6 0 0-4-4.2 0-11.8l-6.5 3s-5.3-10.1 0-15.4"/><path fill="#FFF" d="M-3.9 0v413.1h409.3V0H-3.9zm299.5 303.5l-5.3-4.3s6.8 15.8-6.3 21.2c-11.6 4.7-24.9 3.3-28.7-4.2-8.7 3.6-23.6 6.4-44.3-1.7 0 0-2.3-2.4-1.7-6.8-3.2.2-6.7.4-10.4.4-4 0-7.6-.1-11-.4.6 4.5-1.7 6.9-1.7 6.9-20.7 8.1-35.6 5.3-44.3 1.7-3.8 7.5-17.1 8.9-28.7 4.2-13.1-5.3-6.3-21.2-6.3-21.2l-5.3 4.3c-4-31.5 5.3-38.1 5.3-38.1h-5.3c2.7-19.7 13-33.3 19.2-39.9-19.1-20.5-9.4-50.2-9.4-50.2l-6.8 2c-1.2-25.6 13.8-44.4 13.8-44.4h-8.9c1.1-3.3 2.8-6.3 4.8-9.1-22.1-18.6-8.9-44.4-4.9-49.4 6-7.2 2.2 5.5 14.1 22.4 3.1 4.4 6.9 7.3 10.9 9.3 4-2.4 6.8-3.7 6.8-3.7l-10.4-1.4c8.4-8.8 31.1-24.4 67.6-24.4 36.6 0 59.2 15.5 67.6 24.3l-10.4 1.5s2.8 1.3 6.8 3.7c4-1.9 7.8-4.9 10.9-9.3 11.9-16.9 8.1-29.6 14.1-22.4 4.1 4.9 17.3 30.8-4.9 49.4 2 2.8 3.7 5.9 4.8 9.1h-8.9s15.1 18.8 13.9 44.4l-6.8-1.8s9.8 29.6-9.4 50.2c6.3 6.7 16.4 20.2 19.1 39.8h-5.3c.4-.3 9.7 6.3 5.7 37.9z"/><g opacity=".3"><path d="M109.6 74.4c-4.7 5.6-21.2 38.7 16.7 56.9l34.7-22.8s-24.7 6.4-37.3-11.6c-11.9-17.1-8.1-29.7-14.1-22.5zM287.8 74.4C292.5 80 309 113 271 131.2l-34.7-22.8s24.7 6.4 37.3-11.6c12-17 8.2-29.6 14.2-22.4z"/></g><circle opacity=".19" fill="#6D3D4C" cx="159.2" cy="157.3" r="21.2"/><circle fill="#FFF" cx="159.2" cy="153.6" r="21.2"/><circle fill="#343541" cx="159.2" cy="153.6" r="11.2"/><g><circle opacity=".19" fill="#6D3D4C" cx="237.2" cy="157.3" r="21.2"/><circle fill="#FFF" cx="237.2" cy="153.6" r="21.2"/><circle fill="#343541" cx="237.2" cy="153.6" r="11.2"/></g><path opacity=".5" fill="#0C0E0F" d="M198.7 172.5c-13 0-34.9 9.4 0 24.1 34.9-14.8 13-24.1 0-24.1z"/><g><defs><path id="a" d="M254 189.1c-6.6-1.7-18.3 9.1-54.8 9.1s-48.1-10.8-54.8-9.1 14.9 39.8 54.8 39.8c39.8 0 61.4-38.2 54.8-39.8z"/></defs><use xlink:href="#a" overflow="visible" opacity=".3" fill="#0C0E0F"/><clipPath id="b"><use xlink:href="#a" overflow="visible" opacity=".3"/></clipPath><path clip-path="url(#b)" fill="#FFF" d="M152 185.9v14l10-11 .4 15.9 10.9-12.7 1.6 16.8 10.5-15.1 6.1 18.2 7-17.2M246 185.9v14l-11-11-.8 15.9-11.2-12.7-1.7 16.8-10.5-15.1-6.1 18.2-6.2-17.2"/></g></svg>