<svg width="150" height="150" fill="none" xmlns="http://www.w3.org/2000/svg"><path d="M150 75c0 41.421-33.579 75-75 75S0 116.421 0 75 33.579 0 75 0s75 33.579 75 75z" fill="#1D96EE"/><path fill-rule="evenodd" clip-rule="evenodd" d="M14.885 30.146C25.71 15.659 41.65 5.217 60.028 1.494c-7.271 18.41-25.664 29.891-45.143 28.652zm121.838 87.472c-11.31 16.349-28.949 27.986-49.374 31.37 6.696-21.199 27.699-34.28 49.374-31.37z" fill="#8EC4FF"/><path fill-rule="evenodd" clip-rule="evenodd" d="M78.514.08c39.428 1.82 70.908 34.08 71.478 73.822-.655.064-1.32.098-1.992.098-11.046 0-20-8.955-20-20 0-3.19.746-6.205 2.074-8.88A35.333 35.333 0 01110.5 51c-9.094 0-17.39-3.42-23.67-9.043A15.928 15.928 0 0179 44c-8.837 0-16-7.164-16-16 0-7.502 5.162-13.797 12.127-15.528A35.28 35.28 0 0178.514.08zm-18.92 148.336c.267-1.432.406-2.908.406-4.416 0-10.45-6.679-19.34-16-22.635a12.45 12.45 0 00-3.069-8.069C48.966 105.895 54 95.285 54 83.5 54 61.132 35.867 43 13.5 43c-2.248 0-4.452.183-6.6.535C2.47 53.103 0 63.763 0 75c0 18.612 6.78 35.641 18.005 48.752.392-.043.783-.092 1.172-.147.12.716.303 1.411.54 2.079 10.402 11.339 24.247 19.469 39.877 22.732z" fill="#027700"/><path fill-rule="evenodd" clip-rule="evenodd" d="M140.169 37.853a74.532 74.532 0 016.976 16.582 9.077 9.077 0 01-4.454.47 6 6 0 11-7.597-7.597 9 9 0 015.075-9.455zm-130.42 74.15a75.375 75.375 0 0019.936 22.764A11.5 11.5 0 0036 124.5c0-6.352-5.149-11.5-11.5-11.5-1.762 0-3.43.396-4.923 1.103A7.491 7.491 0 0013.5 111a7.47 7.47 0 00-3.751 1.003z" fill="#65942A"/><path fill-rule="evenodd" clip-rule="evenodd" d="M131.677 25.878c-10.37-11.954-24.46-20.595-40.468-24.122a12.063 12.063 0 001.146 7.788 14.934 14.934 0 00-3.185 7.19A9.47 9.47 0 0085.5 16a9.5 9.5 0 108.346 14.04A14.947 14.947 0 00104 34a14.95 14.95 0 005.945-1.225A8 8 0 00125 29v-.044a10.967 10.967 0 006.677-3.077zM4.613 100.957A10.951 10.951 0 0011 103c6.075 0 11-4.925 11-11 0-2.932-1.147-5.597-3.017-7.568a17.972 17.972 0 005.78-10.501c.406.045.819.069 1.237.069 6.075 0 11-4.925 11-11s-4.925-11-11-11c-3.53 0-6.671 1.662-8.684 4.247A17.917 17.917 0 007 53c-1.32 0-2.607.142-3.846.411A75.007 75.007 0 000 75c0 9.124 1.63 17.868 4.613 25.957z" fill="#0C9509"/><path opacity=".2" fill-rule="evenodd" clip-rule="evenodd" d="M75 150a75 75 0 0053.033-21.967c-58.34-.574-105.492-47.727-106.066-106.066A75 75 0 0075 150z" fill="#000"/></svg>