<svg width="50" height="64" fill="none" xmlns="http://www.w3.org/2000/svg"><path d="M24.999 0c13 0 17 31 17 44h-34c0-13 4-44 17-44z" fill="#fff"/><path d="M31 21a6 6 0 11-12 0 6 6 0 0112 0z" fill="#ADE3FB"/><path fill-rule="evenodd" clip-rule="evenodd" d="M25 25a4 4 0 100-8 4 4 0 000 8zm0 2a6 6 0 100-12 6 6 0 000 12z" fill="#294C73"/><path fill-rule="evenodd" clip-rule="evenodd" d="M8 44l4 12h26l4-12H8z" fill="#C93A0A"/><path fill-rule="evenodd" clip-rule="evenodd" d="M19 30h12v8H19v-8zm1 1v6h10v-6H20z" fill="#294C73"/><path d="M20 35h10v2H20v-2z" fill="#E84E1B"/><path d="M20 33h10v2H20v-2z" fill="#3527B6"/><path d="M20 31h10v2H20v-2z" fill="#fff"/><path d="M23 44h4l-1 20h-2l-1-20z" fill="#FF6431"/><path fill-rule="evenodd" clip-rule="evenodd" d="M25 0c4.743 0 8.288 4.127 10.878 10H14.122C16.712 4.127 20.257 0 25 0zM7.995 44L12 56c-6.114 0-7.133 3-7.133 8H1.81c-4.076-9-.948-19 6.185-20zm34.01 0L38 56c6.114 0 7.133 3 7.133 8h3.057c4.076-9 .948-19-6.185-20z" fill="#E84E1B"/><path opacity=".2" fill-rule="evenodd" clip-rule="evenodd" d="M24.999 0C15 5 16 31 16 44l2 12h-6L7.999 44c.001-13 4-44 17-44z" fill="#000"/></svg>