<svg width="61" height="60" fill="none" xmlns="http://www.w3.org/2000/svg"><g clip-path="url(#clip0)"><rect x=".5" width="60" height="60" rx="10" fill="#304457"/><path d="M34.743 60L22.244 47.5 39.36 12.249l21.14 21.14V50c0 5.523-4.477 10-10 10H34.743z" fill="#1A3045"/><path d="M24.577 34.877l-2.34 12.624 10.75-7.19 8.616-12.924-2.227-15.143-7.982 9.826-6.817 12.807z" fill="#1F8EF4"/><path d="M17.5 34l4.738 13.5 2.339-12.623 6.817-12.807 7.982-9.826L23.6 17.57 17.5 34z" fill="#68B7FF"/><path d="M22.5 34.5l-.263 13 2.296-12.558 6.86-12.872 7.983-9.826-10.642 8.29L22.5 34.5z" fill="#78BEFF"/><path d="M17.5 34l4.738 13.5 2.34-12.623L17.5 34z" fill="#076DCC"/><path d="M39.376 12.244L23.6 17.57l7.794 4.5 7.982-9.826z" fill="#8FC9FF"/><path d="M39.376 12.244L23.6 17.57l2.165 1.25 5.626 3.25 7.985-9.826z" fill="#BDDFFF"/><path d="M32.987 40.31l-10.749 7.191 12.847-4.825 9.616-14.655-5.325-15.777 2.227 15.143-8.616 12.923z" fill="#1066B6"/><path d="M24.577 34.877l-2.339 12.624 10.75-7.19-8.41-5.434z" fill="#005BAF"/><path d="M35.086 42.676l-12.848 4.825 10.75-7.19 2.098 2.365z" fill="#005099"/><path d="M39.376 12.244l-7.982 9.826 10.209 5.317-2.227-15.143z" fill="#4FA4F1"/><path d="M44.701 28.02l-5.325-15.776 2.227 15.143 3.098.634z" fill="#1C7DD8"/></g><defs><clipPath id="clip0"><path fill="#fff" transform="translate(.5)" d="M0 0h60v60H0z"/></clipPath></defs></svg>