<svg width="61" height="60" fill="none" xmlns="http://www.w3.org/2000/svg"><g clip-path="url(#clip0)"><rect x=".5" width="60" height="60" rx="10" fill="#304457"/><path d="M31.5 60l-13-13 12-5V9l30 30v11c0 5.523-4.477 10-10 10h-19z" fill="#1A3045"/><path d="M23.277 20v26.39l6.111 2.332 6.112-.61 3.666-1.223V20L30.611 9l-7.334 11z" fill="#38A44F"/><path d="M30.61 9l-7.333 11 6.111 1.222H35.5L39.166 20 30.611 9z" fill="#3ABC56"/><path d="M30.611 9l4.89 12.222v26.89l3.666-1.223V20L30.61 9z" fill="#137828"/><path d="M30.611 9l4.89 12.222L39.166 20 30.61 9z" fill="#118B2B"/><path d="M23.277 20v26.409l6.111 2.313v-27.5L30.611 9l-7.334 11z" fill="#53C86C"/><path d="M30.61 9l-4.277 11.611v26.955l3.056 1.156v-27.5L30.61 9z" fill="#5ED678"/><path d="M30.61 9l-7.333 11 6.111 1.222L30.611 9z" fill="#B8FFC7"/><path d="M44.667 32.222l-6.722 7.334-1.222 3.666v3.667h2.444l11.611-8.556L52 32.223h-7.333z" fill="#2A9441"/><path d="M52 32.222h-7.333l.611 2.445 3.667 2.444 1.833 1.222L52 32.223z" fill="#47C262"/><path d="M52 32.222l-3.055 4.89-12.222 9.777h2.444l11.611-8.556L52 32.223z" fill="#116E24"/><path d="M52 32.222l-3.056 4.89 1.834 1.221L52 32.223z" fill="#219539"/><path d="M44.667 32.222l-6.722 7.334-1.222 3.666 8.555-8.555L52 32.222h-7.333z" fill="#1A8A31"/><path d="M52 32.222h-7.333l.611 2.445L52 32.222z" fill="#3DE460"/><path d="M13.5 38.333l4.889 8.556 3.667 1.222L24.5 46.89v-6.111l-2.444-5.5-6.112-4.89-2.444 7.945z" fill="#38A44F"/><path d="M15.944 30.389L13.5 38.333h3.667l3.666-1.833 1.223-1.222-6.112-4.89z" fill="#44D263"/><path d="M15.944 30.389l4.89 6.111L24.5 46.889v-6.111l-2.445-5.5-6.11-4.89z" fill="#33B34E"/><path d="M15.944 30.389l4.89 6.111 1.221-1.222-6.11-4.89z" fill="#16A335"/><path d="M13.5 38.333l4.889 8.556 3.667 1.222-4.89-9.778-1.222-7.944-2.444 7.944z" fill="#14872C"/><path d="M15.944 30.389L13.5 38.333h3.667l-1.223-7.944z" fill="#24AE40"/></g><defs><clipPath id="clip0"><path fill="#fff" transform="translate(.5)" d="M0 0h60v60H0z"/></clipPath></defs></svg>