<svg width="61" height="60" fill="none" xmlns="http://www.w3.org/2000/svg"><g clip-path="url(#clip0)"><rect x=".5" width="60" height="60" rx="10" fill="#304457"/><path d="M29.008 60L14.4 45.394 19.5 41v-4l24.36-24.334 16.64 16.64V50c0 5.523-4.477 10-10 10H29.008z" fill="#1A3045"/><path d="M22.5 37.65c0-5 1.695-9.047 8.477-18.5H38.5c5.087 6 9.882 11.929 10 18 .118 6.07-5.655 8-13.002 8-6.866 0-12.998-1.973-12.998-7.5z" fill="#976C2D"/><path d="M26.5 15.15c1.053.701 3.667 2.833 4.5 4h7.5c1.5-3.5 4.5-3.5 5.5-5s-1.5-2.5-2.5-2-1.5.5-2.5-.5c-1.5-1.5-2.5 0-4 .5s-1-.5-3-.5-1.478 1.404-3.5 1c-2.5-.5-3.5 1.5-2 2.5z" fill="#674512"/><path d="M26.5 15.15c1.053.701 3.667 2.833 4.5 4h7.5c1.5-3.5 4.5-3.5 5.5-5-1.5.5-1.5-1-2.5-.5s-2.5 1.5-3.5.5c-1.5-1.5-2.5.5-4 1s-1.932-1.268-5-.5c-2 .5-3-2.5-.5-2-2.5-.5-3.5 1.5-2 2.5z" fill="#976C2D"/><path d="M35.498 45.15c-6.866 0-12.998-1.973-12.998-7.5.781.715.81 3.95 5.5 3 3 .5 1.908-2.455 3-3 1-.5 1.697 5.802 3 4.5 1-1 .106-5.553 1-6 1-.5.603 7.052 2.5 5.5 1.636-1.34 1.55-5.232 2.5-6 1.123-.91.665 6.672 3-1.5 1-3.5-2.966-10.557-4.5-13-2-2 .5 5.5 0 6.5-.883 1.766-1.75-6-2.5-6.5-1.5-1-1.951 6.262-3 6-.947-.237.145-7.21-.5-6.5-5 5.5-2.678 2.819-1.523-1.5 1.023-1.5-.94-3.5-.477-3.5 1.118 0 1.523 2.339 3 3 1.5.5 1.5-3 2-3 .94 0-.172 1.713.5 2.5 1.5 1 2.354-2.688 3-2.5 1 0 .5 2 5-1.5-.5 1.5-4.5 2.5-5.5 5 5.087 6 9.882 11.929 10 18 .118 6.07-5.655 8-13.002 8z" fill="#78541E"/><path d="M30.248 45.01c0 1.105-3.582 2-8 2s-8-.895-8-2v-2h16v2z" fill="#E09C17"/><path d="M30.248 45.01v-2h-6v3.938c3.45-.222 6-1.005 6-1.937z" fill="#CA8C15"/><ellipse cx="22.248" cy="43.011" rx="8" ry="2" fill="#FFD15B"/><path d="M31.567 41.716c0 1.104-3.581 2-8 2-4.418 0-8-.896-8-2v-2h16v2z" fill="#E09C17"/><path d="M31.567 41.716v-2h-6v3.937c3.45-.222 6-1.005 6-1.937z" fill="#CA8C15"/><ellipse cx="23.567" cy="39.716" rx="8" ry="2" fill="#FFD15B"/><path d="M30.929 38.418c0 1.105-3.582 2-8 2s-8-.895-8-2v-2h16v2z" fill="#E09C17"/><path d="M30.929 38.418v-2h-6v3.937c3.45-.222 6-1.005 6-1.937z" fill="#CA8C15"/><ellipse cx="22.929" cy="36.418" rx="8" ry="2" fill="#FFD15B"/><path d="M30.397 34.833c0 1.104-3.582 2-8 2-4.419 0-8-.896-8-2v-2h16v2z" fill="#E09C17"/><path d="M30.396 34.833v-2h-6v3.937c3.45-.222 6-1.005 6-1.937z" fill="#CA8C15"/><ellipse cx="22.396" cy="32.833" rx="8" ry="2" fill="#FFD15B"/><path d="M29.567 31.655c0 1.104-3.582 2-8 2-4.419 0-8-.896-8-2v-2h16v2z" fill="#E09C17"/><path d="M29.566 31.655v-2h-6v3.937c3.45-.222 6-1.005 6-1.937z" fill="#CA8C15"/><ellipse cx="21.566" cy="29.655" rx="8" ry="2" fill="#FFD15B"/><path d="M31.354 28.24c0 1.104-3.582 2-8 2-4.419 0-8-.896-8-2v-2h16v2z" fill="#E09C17"/><path d="M31.354 28.24v-2h-6v3.937c3.45-.222 6-1.005 6-1.937z" fill="#CA8C15"/><ellipse cx="23.354" cy="26.24" rx="8" ry="2" fill="#FFD15B"/><path d="M30.5 19.15s4 1 8.5 0" stroke="#B9A17D" stroke-linecap="round"/></g><defs><clipPath id="clip0"><path fill="#fff" transform="translate(.5)" d="M0 0h60v60H0z"/></clipPath></defs></svg>