<svg width="61" height="60" fill="none" xmlns="http://www.w3.org/2000/svg"><g clip-path="url(#clip0)"><rect x=".5" width="60" height="60" rx="10" fill="#304457"/><path d="M33.29 60L16.106 42.814 46.498 19l14 14v17c0 5.523-4.477 10-10 10H33.291z" fill="#1A3045"/><path d="M16.5 25l11-10 1.318.063A53.068 53.068 0 0146.5 19l-30 6z" fill="#CA8C15"/><path d="M16.5 25l30-6v18l-30 6V25z" fill="#FFDA7B"/><path fill-rule="evenodd" clip-rule="evenodd" d="M46.5 19v18.006L16.598 42.99a.5.5 0 11-.196-.98L45.5 36.186V20.22L16.598 25.99a.5.5 0 11-.196-.98L46.5 19z" fill="#E6A935"/><ellipse cx="22" cy="29" rx="2.5" ry="3" fill="#EAAD37"/><path fill-rule="evenodd" clip-rule="evenodd" d="M19.996 27.206a2.5 2.5 0 01.565 4.247C19.919 30.91 19.5 30.013 19.5 29c0-.672.184-1.293.496-1.794z" fill="#304457"/><ellipse cx="29" cy="32" rx="1.5" ry="2" fill="#EAAD37"/><path d="M23.686 40.557A3.098 3.098 0 0123.5 39.5c0-1.933 1.79-3.5 4-3.5 2.015 0 3.682 1.304 3.96 3l-7.774 1.557z" fill="#CE9629"/><path d="M23.685 40.557C23.5 39.5 24.65 38.5 27 38.5c2.015 0 4.46.5 4.46.5l-7.775 1.557z" fill="#EAAD37"/><path d="M34.5 23c0 2.761-1.567 5-3.5 5-1.741 0-3.185-1.816-3.455-4.193l6.931-1.388c.016.19.024.384.024.58z" fill="#CE9629"/><path fill-rule="evenodd" clip-rule="evenodd" d="M28.028 25.643C28.646 27.058 29.746 28 31 28c1.933 0 3.5-2.239 3.5-5 0-.197-.008-.39-.023-.581l-1.28.256C32.594 24.627 31.154 26 29.475 26c-.51 0-.998-.127-1.447-.357z" fill="#EAAD37"/><ellipse cx="40" cy="25" rx="1.5" ry="2" fill="#EAAD37"/><path d="M45.5 32.94c-.162.04-.329.06-.5.06-1.38 0-2.5-1.343-2.5-3s1.12-3 2.5-3c.171 0 .338.02.5.06v5.88z" fill="#CE9629"/><ellipse cx="37" cy="34" rx="2.5" ry="3" fill="#EAAD37"/><path fill-rule="evenodd" clip-rule="evenodd" d="M36 36.75c.883-.463 1.5-1.52 1.5-2.75s-.617-2.288-1.5-2.75c-.883.462-1.5 1.52-1.5 2.75s.617 2.287 1.5 2.75z" fill="#CE9629"/><ellipse cx="19" cy="38" rx="1.5" ry="2" fill="#CE9629"/><path fill-rule="evenodd" clip-rule="evenodd" d="M18.5 36.114c.583.274 1 1.015 1 1.886 0 .87-.417 1.612-1 1.886-.583-.274-1-1.015-1-1.886 0-.87.417-1.612 1-1.886z" fill="#304457"/></g><defs><clipPath id="clip0"><path fill="#fff" transform="translate(.5)" d="M0 0h60v60H0z"/></clipPath></defs></svg>