<svg width="61" height="60" fill="none" xmlns="http://www.w3.org/2000/svg"><g clip-path="url(#clip0)"><rect x=".5" width="60" height="60" rx="10" fill="#304457"/><path d="M40.5 60l-10-10V10l30 30v10c0 5.523-4.477 10-10 10h-10z" fill="#1A3045"/><path d="M14.5 30l16-20 16 20-16 20-16-20z" fill="#E09C17"/><path d="M25.5 32l5-22 9 22-9 18-5-18z" fill="#DF9B16"/><path d="M25.5 32l5-22 9 22h-14z" fill="#FDBB3C"/><path d="M39.5 32l-9-22 16 20-16 20 9-18z" fill="#BC7E04"/><path d="M39.5 32l-9-22 16 20-7 2z" fill="#E19B12"/><path d="M14.5 30l16-20-5 22 5 18-16-20z" fill="#F4B231"/><path d="M14.5 30l16-20-5 22-11-2z" fill="#FFE1A7"/></g><defs><clipPath id="clip0"><path fill="#fff" transform="translate(.5)" d="M0 0h60v60H0z"/></clipPath></defs></svg>